<svg xmlns="http://www.w3.org/2000/svg" width="111.915" height="94.329" viewBox="0 0 111.915 94.329">
  <g id="heart" transform="translate(0.502)">
    <g id="Layer_2_26_" transform="translate(0 0)">
      <g id="Group_47" data-name="Group 47">
        <path id="Path_173" data-name="Path 173" d="M129.275,81.316c8.617-8.106,19.313-18.173,20.784-27.129,1.031-6.333.025-11.555-3-15.52-3.051-4-7.686-6.286-14.183-6.982a17.408,17.408,0,0,0-1.76-.092,20.642,20.642,0,0,0-12.8,4.6,20.625,20.625,0,0,0-12.786-4.6,17.41,17.41,0,0,0-1.765.092c-6.5.7-11.136,2.98-14.183,6.982-3.021,3.965-4.028,9.187-3,15.52,1.471,8.961,12.167,19.024,20.784,27.129,0,0,4.3,4.317,5.591,5.423.973.834,3.078,2.51,5.361,2.51s4.388-1.676,5.357-2.51C124.975,85.633,129.275,81.316,129.275,81.316Z" transform="translate(-62.918 -31.592)" fill="#ff3f34"/>
        <path id="Path_174" data-name="Path 174" d="M40.2,169.156c-.469-.36-4.187-3.172-14.5-3.86a3.889,3.889,0,0,1-1.644-.783l-.369-.249a6.978,6.978,0,0,1-1.425-1.205c-.787-.943-1.68-1.736-2.43-2.783-5.012-6.991-9.928-8.391-10.663-8.671-.976-.469-1.643-.606-1.86-1.274-.088-.31-.939-8.428-1.091-9.791-.422-3.915-.842-6.815-3.084-7.6a1.161,1.161,0,0,0-1.416.318c-.512.537-.813,3.379-.96,5.177,0,0-.845,10.5-.745,14.145s6.4,18.189,9.777,21.584,19,12.276,19,12.276c.562.469,3.685,2.871,3.685,6.023v3.552a2.86,2.86,0,0,0,3.156,3.287c3.6,0,8.6.014,12.154.014s2.862-3.212,2.865-4.337c0-.8,0-1.439,0-1.742,0-.123,0-.192,0-.192.042-1.161.24-2.314.378-3.466a13.085,13.085,0,0,0-.105-4.782C48.813,175.376,41.043,169.814,40.2,169.156Z" transform="translate(0 -105.483)" fill="#ff3f34" stroke="#ff3f34" stroke-width="1"/>
        <path id="Path_175" data-name="Path 175" d="M271.111,138.431c-.147-1.8-.448-4.64-.96-5.177a1.162,1.162,0,0,0-1.416-.318c-2.243.788-2.662,3.688-3.084,7.6-.152,1.363-1,9.481-1.091,9.791-.217.668-.884.8-1.86,1.274-.734.281-5.65,1.681-10.663,8.671-.75,1.048-1.643,1.84-2.43,2.783a7,7,0,0,1-1.425,1.205l-.369.249a3.89,3.89,0,0,1-1.644.783c-10.314.688-14.032,3.5-14.5,3.86-.846.658-8.616,6.22-10.729,15.637a13.084,13.084,0,0,0-.105,4.782c.138,1.153.335,2.305.378,3.466,0,0,0,.069,0,.192,0,.3,0,.942,0,1.742,0,1.125-.691,4.337,2.865,4.337s8.553-.014,12.154-.014a2.86,2.86,0,0,0,3.156-3.287v-3.552c0-3.152,3.123-5.554,3.685-6.023,0,0,16.852-9.715,19-12.276s9.365-18.032,9.777-21.584S271.111,138.431,271.111,138.431Z" transform="translate(-161.051 -105.484)" fill="#ff3f34" stroke="#ff3f34" stroke-width="1"/>
      </g>
    </g>
  </g>
</svg>
